<svg width="446" height="379" viewBox="0 0 446 379" fill="none" xmlns="http://www.w3.org/2000/svg">
<g filter="url(#filter0_d_1103_181)">
<path d="M56.283 187.301C56.0014 184.44 55.8448 181.605 55.7138 178.726C55.2855 172.408 55.4055 165.745 55.3714 159.286C52.6852 159.447 49.9989 159.562 47.3182 159.639C32.878 160.191 18.4383 160.274 4 159.806C8.09391 165.559 12.1913 171.305 16.2917 177.052C18.7741 180.534 21.262 184.004 23.7324 187.499C24.9307 189.289 25.0412 191.668 24.0271 193.644C23.9116 194.221 13.5788 212.987 12.5964 214.802C10.6938 218.316 8.79321 221.837 6.90014 225.365C9.85445 225.378 12.8103 225.346 15.7601 225.365C26.4935 225.448 37.2424 225.211 47.9768 225.243C53.1294 225.256 58.2951 225.179 63.4492 225.14C73.5962 225.076 83.7438 224.961 93.8913 224.903C89.6795 222.485 85.5329 219.875 81.4566 216.97C74.3814 211.903 66.9682 206.041 61.1404 198.672C59.9095 197.184 58.7403 195.503 57.8337 193.611C57.7348 193.464 57.639 193.304 57.5411 193.13C57.2409 192.483 57.022 191.803 56.8528 191.097C56.7062 190.584 56.5868 190.02 56.5501 189.494C56.4417 188.769 56.3639 188.038 56.283 187.301Z" fill="#B33636"/>
<path d="M384.86 194.46C379.033 202.019 371.619 208.032 364.544 213.229C360.468 216.21 356.321 218.881 352.109 221.367C362.256 221.42 372.405 221.545 382.552 221.611C387.706 221.644 392.872 221.729 398.024 221.716C408.759 221.683 419.508 221.927 430.241 221.841C433.191 221.821 436.147 221.854 439.102 221.841C437.208 218.223 435.306 214.611 433.404 211.006C432.421 209.144 422.09 189.894 421.973 189.302C420.959 187.276 421.07 184.829 422.268 183C424.738 179.414 427.226 175.855 429.709 172.283C433.809 166.388 437.907 160.494 442 154.586C427.562 155.073 413.123 154.987 398.683 154.421C395.701 154.329 392.714 154.198 389.729 154C389.728 154.171 389.724 154.349 389.721 154.527C389.865 157.849 390.001 160.993 390.008 161C390.219 161.27 390.328 176.855 390.333 178.644C390.337 180.802 390.18 182.927 390.062 185.072C390.018 185.888 389.866 186.657 389.751 187.447C389.696 187.835 389.555 188.21 389.458 188.579C389.255 189.157 389.061 189.539 388.714 189.986C388.367 190.394 388.054 190.631 387.621 190.828C387.547 190.888 387.422 190.921 387.286 190.953C386.554 192.223 385.723 193.388 384.86 194.46Z" fill="#B33636"/>
<path d="M215.549 15.9064C218.199 9.84236 226.801 9.84236 229.451 15.9064C231.879 21.4634 239.523 22.065 242.791 16.9563C246.357 11.3814 254.852 12.727 256.521 19.1309C258.05 24.9993 265.506 26.7894 269.533 22.2548C273.927 17.3064 282.108 19.9644 282.754 26.5505C283.346 32.5859 290.43 35.5204 295.117 31.6714C300.231 27.4713 307.895 31.3764 307.503 37.9824C307.144 44.0362 313.682 48.0428 318.913 44.9743C324.621 41.626 331.58 46.6819 330.159 53.1452C328.857 59.0682 334.688 64.0483 340.334 61.836C346.496 59.4217 352.578 65.504 350.164 71.6656C347.952 77.312 352.932 83.1429 358.855 81.8411C365.318 80.4205 370.374 87.3793 367.026 93.0873C363.957 98.3182 367.964 104.856 374.018 104.497C380.624 104.105 384.529 111.769 380.329 116.883C376.48 121.57 379.414 128.654 385.45 129.246C392.036 129.892 394.694 138.073 389.745 142.467C385.211 146.494 387.001 153.95 392.869 155.479C399.273 157.148 400.619 165.643 395.044 169.209C389.935 172.477 390.537 180.121 396.094 182.549C402.158 185.199 402.158 193.801 396.094 196.451C390.537 198.879 389.935 206.523 395.044 209.791C400.619 213.357 399.273 221.852 392.869 223.521C387.001 225.05 385.211 232.506 389.745 236.533C394.694 240.927 392.036 249.108 385.45 249.754C379.414 250.346 376.48 257.43 380.329 262.117C384.529 267.231 380.624 274.895 374.018 274.503C367.964 274.144 363.957 280.682 367.026 285.913C370.374 291.621 365.318 298.58 358.855 297.159C352.932 295.857 347.952 301.688 350.164 307.334C352.578 313.496 346.496 319.578 340.334 317.164C334.688 314.952 328.857 319.932 330.159 325.855C331.58 332.318 324.621 337.374 318.913 334.026C313.682 330.957 307.144 334.964 307.503 341.018C307.895 347.624 300.231 351.529 295.117 347.329C290.43 343.48 283.346 346.414 282.754 352.45C282.108 359.036 273.927 361.694 269.533 356.745C265.506 352.211 258.05 354.001 256.521 359.869C254.852 366.273 246.357 367.619 242.791 362.044C239.523 356.935 231.879 357.537 229.451 363.094C226.801 369.158 218.199 369.158 215.549 363.094C213.121 357.537 205.477 356.935 202.209 362.044C198.643 367.619 190.148 366.273 188.479 359.869C186.95 354.001 179.494 352.211 175.467 356.745C171.073 361.694 162.892 359.036 162.246 352.45C161.654 346.414 154.57 343.48 149.883 347.329C144.769 351.529 137.105 347.624 137.497 341.018C137.856 334.964 131.318 330.957 126.087 334.026C120.379 337.374 113.42 332.318 114.841 325.855C116.143 319.932 110.312 314.952 104.666 317.164C98.504 319.578 92.4217 313.496 94.836 307.334C97.0483 301.688 92.0682 295.857 86.1452 297.159C79.6819 298.58 74.626 291.621 77.9743 285.913C81.0428 280.682 77.0362 274.144 70.9824 274.503C64.3764 274.895 60.4713 267.231 64.6714 262.117C68.5204 257.43 65.5859 250.346 59.5505 249.754C52.9644 249.108 50.3064 240.927 55.2548 236.533C59.7894 232.506 57.9993 225.05 52.1309 223.521C45.727 221.852 44.3814 213.357 49.9563 209.791C55.065 206.523 54.4634 198.879 48.9064 196.451C42.8424 193.801 42.8424 185.199 48.9064 182.549C54.4634 180.121 55.065 172.477 49.9563 169.209C44.3814 165.643 45.727 157.148 52.1309 155.479C57.9993 153.95 59.7894 146.494 55.2548 142.467C50.3064 138.073 52.9644 129.892 59.5505 129.246C65.5859 128.654 68.5204 121.57 64.6714 116.883C60.4713 111.769 64.3764 104.105 70.9824 104.497C77.0362 104.856 81.0428 98.3182 77.9743 93.0873C74.626 87.3793 79.6819 80.4205 86.1452 81.8411C92.0682 83.1429 97.0483 77.312 94.836 71.6656C92.4217 65.504 98.504 59.4217 104.666 61.836C110.312 64.0483 116.143 59.0682 114.841 53.1452C113.42 46.6819 120.379 41.626 126.087 44.9743C131.318 48.0428 137.856 44.0362 137.497 37.9824C137.105 31.3764 144.769 27.4713 149.883 31.6714C154.57 35.5204 161.654 32.5859 162.246 26.5505C162.892 19.9644 171.073 17.3064 175.467 22.2548C179.494 26.7894 186.95 24.9993 188.479 19.1309C190.148 12.727 198.643 11.3814 202.209 16.9563C205.477 22.065 213.121 21.4634 215.549 15.9064Z" fill="#B33636"/>
<circle cx="222.348" cy="189.653" r="159.18" fill="#B33636"/>
<path d="M86.3707 162H76.5739V134.364H86.4517C89.2315 134.364 91.6245 134.917 93.6307 136.023C95.6368 137.121 97.1797 138.7 98.2592 140.76C99.3478 142.82 99.892 145.285 99.892 148.155C99.892 151.034 99.3478 153.508 98.2592 155.577C97.1797 157.646 95.6278 159.234 93.6037 160.34C91.5885 161.447 89.1776 162 86.3707 162ZM82.4169 156.994H86.1278C87.8551 156.994 89.308 156.688 90.4865 156.076C91.674 155.455 92.5646 154.497 93.1584 153.202C93.7611 151.897 94.0625 150.215 94.0625 148.155C94.0625 146.113 93.7611 144.444 93.1584 143.148C92.5646 141.853 91.6785 140.899 90.5 140.288C89.3215 139.676 87.8686 139.37 86.1413 139.37H82.4169V156.994ZM104.22 162V134.364H122.843V139.181H110.063V145.766H121.884V150.584H110.063V157.183H122.896V162H104.22ZM142.48 142.312C142.372 141.223 141.909 140.378 141.09 139.775C140.272 139.172 139.161 138.871 137.757 138.871C136.804 138.871 135.998 139.006 135.342 139.276C134.685 139.536 134.181 139.901 133.83 140.369C133.488 140.836 133.317 141.367 133.317 141.961C133.299 142.456 133.403 142.888 133.628 143.256C133.862 143.625 134.181 143.945 134.586 144.214C134.991 144.475 135.459 144.705 135.989 144.903C136.52 145.092 137.087 145.254 137.69 145.388L140.173 145.982C141.378 146.252 142.485 146.612 143.492 147.062C144.5 147.512 145.372 148.065 146.11 148.722C146.848 149.378 147.419 150.152 147.824 151.043C148.238 151.933 148.449 152.954 148.458 154.106C148.449 155.797 148.017 157.263 147.163 158.505C146.317 159.737 145.094 160.696 143.492 161.379C141.9 162.054 139.979 162.391 137.73 162.391C135.499 162.391 133.556 162.049 131.901 161.366C130.254 160.682 128.968 159.67 128.041 158.33C127.124 156.98 126.642 155.311 126.597 153.323H132.251C132.314 154.25 132.58 155.023 133.048 155.644C133.524 156.256 134.159 156.719 134.95 157.034C135.751 157.34 136.655 157.493 137.663 157.493C138.652 157.493 139.511 157.349 140.24 157.061C140.978 156.773 141.549 156.373 141.954 155.86C142.359 155.347 142.561 154.758 142.561 154.092C142.561 153.472 142.377 152.95 142.008 152.527C141.648 152.104 141.117 151.744 140.415 151.447C139.723 151.151 138.873 150.881 137.865 150.638L134.856 149.882C132.526 149.315 130.686 148.429 129.337 147.224C127.987 146.018 127.317 144.394 127.326 142.352C127.317 140.679 127.762 139.217 128.662 137.967C129.571 136.716 130.817 135.74 132.4 135.038C133.983 134.337 135.782 133.986 137.798 133.986C139.849 133.986 141.639 134.337 143.168 135.038C144.707 135.74 145.903 136.716 146.758 137.967C147.612 139.217 148.053 140.665 148.08 142.312H142.48ZM152.388 162V134.364H171.01V139.181H158.231V145.766H170.052V150.584H158.231V157.183H171.064V162H152.388ZM198.772 134.364V162H193.725L181.701 144.606H181.499V162H175.656V134.364H180.784L192.713 151.744H192.956V134.364H198.772ZM208.592 134.364L215.272 155.361H215.528L222.221 134.364H228.699L219.172 162H211.642L202.101 134.364H208.592ZM255.863 148.182C255.863 151.196 255.291 153.759 254.149 155.874C253.015 157.988 251.468 159.603 249.507 160.718C247.555 161.825 245.36 162.378 242.922 162.378C240.466 162.378 238.262 161.82 236.309 160.705C234.357 159.589 232.814 157.974 231.681 155.86C230.547 153.746 229.981 151.187 229.981 148.182C229.981 145.168 230.547 142.604 231.681 140.49C232.814 138.376 234.357 136.766 236.309 135.659C238.262 134.544 240.466 133.986 242.922 133.986C245.36 133.986 247.555 134.544 249.507 135.659C251.468 136.766 253.015 138.376 254.149 140.49C255.291 142.604 255.863 145.168 255.863 148.182ZM249.939 148.182C249.939 146.23 249.646 144.583 249.062 143.243C248.486 141.902 247.672 140.886 246.619 140.193C245.567 139.5 244.334 139.154 242.922 139.154C241.509 139.154 240.277 139.5 239.224 140.193C238.172 140.886 237.353 141.902 236.768 143.243C236.193 144.583 235.905 146.23 235.905 148.182C235.905 150.134 236.193 151.78 236.768 153.121C237.353 154.461 238.172 155.478 239.224 156.17C240.277 156.863 241.509 157.21 242.922 157.21C244.334 157.21 245.567 156.863 246.619 156.17C247.672 155.478 248.486 154.461 249.062 153.121C249.646 151.78 249.939 150.134 249.939 148.182ZM260.191 162V134.364H266.034V157.183H277.882V162H260.191ZM283.776 134.364L290.455 155.361H290.712L297.405 134.364H303.882L294.355 162H286.825L277.285 134.364H283.776ZM313.052 134.364V162H307.209V134.364H313.052ZM327.656 162H317.859V134.364H327.737C330.517 134.364 332.91 134.917 334.916 136.023C336.922 137.121 338.465 138.7 339.544 140.76C340.633 142.82 341.177 145.285 341.177 148.155C341.177 151.034 340.633 153.508 339.544 155.577C338.465 157.646 336.913 159.234 334.889 160.34C332.874 161.447 330.463 162 327.656 162ZM323.702 156.994H327.413C329.14 156.994 330.593 156.688 331.772 156.076C332.959 155.455 333.85 154.497 334.444 153.202C335.046 151.897 335.348 150.215 335.348 148.155C335.348 146.113 335.046 144.444 334.444 143.148C333.85 141.853 332.964 140.899 331.785 140.288C330.607 139.676 329.154 139.37 327.426 139.37H323.702V156.994ZM370.902 148.182C370.902 151.196 370.331 153.759 369.188 155.874C368.055 157.988 366.507 159.603 364.546 160.718C362.594 161.825 360.399 162.378 357.961 162.378C355.505 162.378 353.301 161.82 351.349 160.705C349.396 159.589 347.854 157.974 346.72 155.86C345.586 153.746 345.02 151.187 345.02 148.182C345.02 145.168 345.586 142.604 346.72 140.49C347.854 138.376 349.396 136.766 351.349 135.659C353.301 134.544 355.505 133.986 357.961 133.986C360.399 133.986 362.594 134.544 364.546 135.659C366.507 136.766 368.055 138.376 369.188 140.49C370.331 142.604 370.902 145.168 370.902 148.182ZM364.978 148.182C364.978 146.23 364.685 144.583 364.101 143.243C363.525 141.902 362.711 140.886 361.658 140.193C360.606 139.5 359.373 139.154 357.961 139.154C356.548 139.154 355.316 139.5 354.263 140.193C353.211 140.886 352.392 141.902 351.807 143.243C351.232 144.583 350.944 146.23 350.944 148.182C350.944 150.134 351.232 151.78 351.807 153.121C352.392 154.461 353.211 155.478 354.263 156.17C355.316 156.863 356.548 157.21 357.961 157.21C359.373 157.21 360.606 156.863 361.658 156.17C362.711 155.478 363.525 154.461 364.101 153.121C364.685 151.78 364.978 150.134 364.978 148.182ZM181.259 208V180.364H192.163C194.259 180.364 196.045 180.764 197.52 181.565C198.995 182.356 200.12 183.458 200.894 184.871C201.676 186.274 202.068 187.893 202.068 189.729C202.068 191.564 201.672 193.183 200.88 194.587C200.088 195.99 198.941 197.083 197.439 197.866C195.946 198.648 194.137 199.04 192.014 199.04H185.065V194.357H191.07C192.194 194.357 193.121 194.164 193.85 193.777C194.587 193.381 195.136 192.837 195.496 192.144C195.865 191.442 196.049 190.637 196.049 189.729C196.049 188.811 195.865 188.01 195.496 187.327C195.136 186.634 194.587 186.099 193.85 185.721C193.112 185.334 192.176 185.141 191.043 185.141H187.102V208H181.259ZM205.863 208V180.364H224.485V185.181H211.706V191.766H223.527V196.584H211.706V203.183H224.539V208H205.863ZM229.131 208V180.364H234.974V203.183H246.822V208H229.131ZM275.011 194.182C275.011 197.196 274.44 199.759 273.297 201.874C272.164 203.988 270.617 205.603 268.655 206.718C266.703 207.825 264.508 208.378 262.07 208.378C259.614 208.378 257.41 207.82 255.458 206.705C253.506 205.589 251.963 203.974 250.829 201.86C249.696 199.746 249.129 197.187 249.129 194.182C249.129 191.168 249.696 188.604 250.829 186.49C251.963 184.376 253.506 182.766 255.458 181.659C257.41 180.544 259.614 179.986 262.07 179.986C264.508 179.986 266.703 180.544 268.655 181.659C270.617 182.766 272.164 184.376 273.297 186.49C274.44 188.604 275.011 191.168 275.011 194.182ZM269.087 194.182C269.087 192.23 268.795 190.583 268.21 189.243C267.634 187.902 266.82 186.886 265.768 186.193C264.715 185.5 263.483 185.154 262.07 185.154C260.658 185.154 259.425 185.5 258.373 186.193C257.32 186.886 256.501 187.902 255.917 189.243C255.341 190.583 255.053 192.23 255.053 194.182C255.053 196.134 255.341 197.78 255.917 199.121C256.501 200.461 257.32 201.478 258.373 202.17C259.425 202.863 260.658 203.21 262.07 203.21C263.483 203.21 264.715 202.863 265.768 202.17C266.82 201.478 267.634 200.461 268.21 199.121C268.795 197.78 269.087 196.134 269.087 194.182ZM159.362 226.364V254H154.315L142.291 236.606H142.089V254H136.246V226.364H141.374L153.303 243.744H153.545V226.364H159.362ZM170.032 226.364V254H164.189V226.364H170.032ZM179.603 254H173.342L182.882 226.364H190.412L199.939 254H193.678L186.755 232.679H186.539L179.603 254ZM179.212 243.137H194.001V247.698H179.212V243.137ZM203.265 254V226.364H221.887V231.181H209.108V237.766H220.929V242.584H209.108V249.183H221.941V254H203.265ZM226.533 254V226.364H244.831V231.181H232.376V237.766H243.617V242.584H232.376V254H226.533ZM248.761 254V226.364H267.384V231.181H254.604V237.766H266.425V242.584H254.604V249.183H267.438V254H248.761ZM289.099 226.364H294.942V244.311C294.942 246.326 294.461 248.089 293.498 249.601C292.545 251.112 291.209 252.291 289.491 253.136C287.772 253.973 285.771 254.391 283.486 254.391C281.192 254.391 279.185 253.973 277.467 253.136C275.749 252.291 274.413 251.112 273.459 249.601C272.506 248.089 272.029 246.326 272.029 244.311V226.364H277.872V243.812C277.872 244.864 278.101 245.8 278.56 246.619C279.028 247.437 279.685 248.08 280.53 248.548C281.376 249.016 282.361 249.25 283.486 249.25C284.619 249.25 285.604 249.016 286.441 248.548C287.287 248.08 287.939 247.437 288.398 246.619C288.865 245.8 289.099 244.864 289.099 243.812V226.364ZM299.75 254V226.364H310.653C312.749 226.364 314.535 226.764 316.01 227.565C317.486 228.356 318.61 229.458 319.384 230.871C320.167 232.274 320.558 233.893 320.558 235.729C320.558 237.564 320.162 239.183 319.37 240.587C318.579 241.99 317.432 243.083 315.929 243.866C314.436 244.648 312.628 245.04 310.505 245.04H303.555V240.357H309.56C310.685 240.357 311.611 240.164 312.34 239.777C313.078 239.381 313.626 238.837 313.986 238.144C314.355 237.442 314.539 236.637 314.539 235.729C314.539 234.811 314.355 234.01 313.986 233.327C313.626 232.634 313.078 232.099 312.34 231.721C311.602 231.334 310.667 231.141 309.533 231.141H305.593V254H299.75Z" fill="white"/>
</g>
<defs>
<filter id="filter0_d_1103_181" x="0" y="0" width="446" height="387" filterUnits="userSpaceOnUse" color-interpolation-filters="sRGB">
<feFlood flood-opacity="0" result="BackgroundImageFix"/>
<feColorMatrix in="SourceAlpha" type="matrix" values="0 0 0 0 0 0 0 0 0 0 0 0 0 0 0 0 0 0 127 0" result="hardAlpha"/>
<feOffset dy="4"/>
<feGaussianBlur stdDeviation="2"/>
<feComposite in2="hardAlpha" operator="out"/>
<feColorMatrix type="matrix" values="0 0 0 0 0 0 0 0 0 0 0 0 0 0 0 0 0 0 0.25 0"/>
<feBlend mode="normal" in2="BackgroundImageFix" result="effect1_dropShadow_1103_181"/>
<feBlend mode="normal" in="SourceGraphic" in2="effect1_dropShadow_1103_181" result="shape"/>
</filter>
</defs>
</svg>
