<svg width="446" height="379" viewBox="0 0 446 379" fill="none" xmlns="http://www.w3.org/2000/svg">
<g filter="url(#filter0_d_1097_100)">
<path d="M56.283 187.301C56.0014 184.44 55.8448 181.605 55.7138 178.726C55.2855 172.408 55.4055 165.745 55.3714 159.286C52.6852 159.447 49.9989 159.562 47.3182 159.639C32.878 160.191 18.4383 160.274 4 159.806C8.09391 165.559 12.1913 171.305 16.2917 177.052C18.7741 180.534 21.262 184.004 23.7324 187.499C24.9307 189.289 25.0412 191.668 24.0271 193.644C23.9116 194.221 13.5788 212.987 12.5964 214.802C10.6938 218.316 8.79321 221.837 6.90014 225.365C9.85445 225.378 12.8103 225.346 15.7601 225.365C26.4935 225.448 37.2424 225.211 47.9768 225.243C53.1294 225.256 58.2951 225.179 63.4492 225.14C73.5962 225.076 83.7438 224.961 93.8913 224.903C89.6795 222.485 85.5329 219.875 81.4566 216.97C74.3814 211.903 66.9682 206.041 61.1404 198.672C59.9095 197.184 58.7403 195.503 57.8337 193.611C57.7348 193.464 57.639 193.304 57.5411 193.13C57.2409 192.483 57.022 191.803 56.8528 191.097C56.7062 190.584 56.5868 190.02 56.5501 189.494C56.4417 188.769 56.3639 188.038 56.283 187.301Z" fill="#B33636"/>
<path d="M384.86 194.46C379.033 202.019 371.619 208.032 364.544 213.229C360.468 216.21 356.321 218.881 352.109 221.367C362.256 221.42 372.405 221.545 382.552 221.611C387.706 221.644 392.872 221.729 398.024 221.716C408.759 221.683 419.508 221.927 430.241 221.841C433.191 221.821 436.147 221.854 439.102 221.841C437.208 218.223 435.306 214.611 433.404 211.006C432.421 209.144 422.09 189.894 421.973 189.302C420.959 187.276 421.07 184.829 422.268 183C424.738 179.414 427.226 175.855 429.709 172.283C433.809 166.388 437.907 160.494 442 154.586C427.562 155.073 413.123 154.987 398.683 154.421C395.701 154.329 392.714 154.198 389.729 154C389.728 154.171 389.725 154.349 389.722 154.527C389.865 157.849 390.001 160.993 390.008 161C390.219 161.27 390.328 176.855 390.333 178.644C390.337 180.802 390.18 182.927 390.062 185.072C390.018 185.888 389.866 186.657 389.751 187.447C389.696 187.835 389.555 188.21 389.458 188.579C389.255 189.157 389.061 189.539 388.714 189.986C388.367 190.394 388.054 190.631 387.621 190.828C387.547 190.888 387.422 190.921 387.286 190.953C386.554 192.223 385.723 193.388 384.86 194.46Z" fill="#B33636"/>
<path d="M215.549 15.9064C218.199 9.84236 226.801 9.84236 229.451 15.9064C231.879 21.4634 239.523 22.065 242.791 16.9563C246.357 11.3814 254.852 12.727 256.521 19.1309C258.05 24.9993 265.506 26.7894 269.533 22.2548C273.927 17.3064 282.108 19.9644 282.754 26.5505C283.346 32.5859 290.43 35.5204 295.117 31.6714C300.231 27.4713 307.895 31.3764 307.503 37.9824C307.144 44.0362 313.682 48.0428 318.913 44.9743C324.621 41.626 331.58 46.6819 330.159 53.1452C328.857 59.0682 334.688 64.0483 340.334 61.836C346.496 59.4217 352.578 65.504 350.164 71.6656C347.952 77.312 352.932 83.1429 358.855 81.8411C365.318 80.4205 370.374 87.3793 367.026 93.0873C363.957 98.3182 367.964 104.856 374.018 104.497C380.624 104.105 384.529 111.769 380.329 116.883C376.48 121.57 379.414 128.654 385.45 129.246C392.036 129.892 394.694 138.073 389.745 142.467C385.211 146.494 387.001 153.95 392.869 155.479C399.273 157.148 400.619 165.643 395.044 169.209C389.935 172.477 390.537 180.121 396.094 182.549C402.158 185.199 402.158 193.801 396.094 196.451C390.537 198.879 389.935 206.523 395.044 209.791C400.619 213.357 399.273 221.852 392.869 223.521C387.001 225.05 385.211 232.506 389.745 236.533C394.694 240.927 392.036 249.108 385.45 249.754C379.414 250.346 376.48 257.43 380.329 262.117C384.529 267.231 380.624 274.895 374.018 274.503C367.964 274.144 363.957 280.682 367.026 285.913C370.374 291.621 365.318 298.58 358.855 297.159C352.932 295.857 347.952 301.688 350.164 307.334C352.578 313.496 346.496 319.578 340.334 317.164C334.688 314.952 328.857 319.932 330.159 325.855C331.58 332.318 324.621 337.374 318.913 334.026C313.682 330.957 307.144 334.964 307.503 341.018C307.895 347.624 300.231 351.529 295.117 347.329C290.43 343.48 283.346 346.414 282.754 352.45C282.108 359.036 273.927 361.694 269.533 356.745C265.506 352.211 258.05 354.001 256.521 359.869C254.852 366.273 246.357 367.619 242.791 362.044C239.523 356.935 231.879 357.537 229.451 363.094C226.801 369.158 218.199 369.158 215.549 363.094C213.121 357.537 205.477 356.935 202.209 362.044C198.643 367.619 190.148 366.273 188.479 359.869C186.95 354.001 179.494 352.211 175.467 356.745C171.073 361.694 162.892 359.036 162.246 352.45C161.654 346.414 154.57 343.48 149.883 347.329C144.769 351.529 137.105 347.624 137.497 341.018C137.856 334.964 131.318 330.957 126.087 334.026C120.379 337.374 113.42 332.318 114.841 325.855C116.143 319.932 110.312 314.952 104.666 317.164C98.504 319.578 92.4217 313.496 94.836 307.334C97.0483 301.688 92.0682 295.857 86.1452 297.159C79.6819 298.58 74.626 291.621 77.9743 285.913C81.0428 280.682 77.0362 274.144 70.9824 274.503C64.3764 274.895 60.4713 267.231 64.6714 262.117C68.5204 257.43 65.5859 250.346 59.5505 249.754C52.9644 249.108 50.3064 240.927 55.2548 236.533C59.7894 232.506 57.9993 225.05 52.1309 223.521C45.727 221.852 44.3814 213.357 49.9563 209.791C55.065 206.523 54.4634 198.879 48.9064 196.451C42.8424 193.801 42.8424 185.199 48.9064 182.549C54.4634 180.121 55.065 172.477 49.9563 169.209C44.3814 165.643 45.727 157.148 52.1309 155.479C57.9993 153.95 59.7894 146.494 55.2548 142.467C50.3064 138.073 52.9644 129.892 59.5505 129.246C65.5859 128.654 68.5204 121.57 64.6714 116.883C60.4713 111.769 64.3764 104.105 70.9824 104.497C77.0362 104.856 81.0428 98.3182 77.9743 93.0873C74.626 87.3793 79.6819 80.4205 86.1452 81.8411C92.0682 83.1429 97.0483 77.312 94.836 71.6656C92.4217 65.504 98.504 59.4217 104.666 61.836C110.312 64.0483 116.143 59.0682 114.841 53.1452C113.42 46.6819 120.379 41.626 126.087 44.9743C131.318 48.0428 137.856 44.0362 137.497 37.9824C137.105 31.3764 144.769 27.4713 149.883 31.6714C154.57 35.5204 161.654 32.5859 162.246 26.5505C162.892 19.9644 171.073 17.3064 175.467 22.2548C179.494 26.7894 186.95 24.9993 188.479 19.1309C190.148 12.727 198.643 11.3814 202.209 16.9563C205.477 22.065 213.121 21.4634 215.549 15.9064Z" fill="#B33636"/>
<circle cx="222.348" cy="189.653" r="159.18" fill="white"/>
<g filter="url(#filter1_d_1097_100)">
<g clip-path="url(#clip0_1097_100)">
<path d="M102.32 160.787H100.929V120L141.996 96.5547L142.692 97.7339L102.32 120.832V160.787Z" fill="#B33636"/>
<path d="M102.32 160.781H100.929V166.955H102.32V160.781Z" fill="#B33636"/>
<path d="M138.867 281.238L100.929 259.562V212.602H102.32V258.729L139.562 280.059L138.867 281.238Z" fill="#B33636"/>
<path d="M139.524 280.046L138.833 281.25L141.94 283.026L142.632 281.823L139.524 280.046Z" fill="#B33636"/>
<path d="M222.392 329.306L181.36 305.826L182.055 304.647L222.392 327.711L264.955 303.398L265.65 304.578L222.392 329.306Z" fill="#B33636"/>
<path d="M303.935 283.003L303.24 281.824L343.577 258.725V216.863H344.968V259.557L344.62 259.731L303.935 283.003Z" fill="#B33636"/>
<path d="M344.968 166.96H343.577V120.832L303.24 97.7339L303.935 96.5547L344.968 120V166.96Z" fill="#B33636"/>
<path d="M266.067 76.1578L223.505 51.8454L180.943 76.1578L180.247 74.9786L223.505 50.25L266.763 74.9786L266.067 76.1578Z" fill="#B33636"/>
<path d="M307.03 281.238L306.335 280.059L343.577 258.729V212.602H344.968V259.562L344.62 259.735L307.03 281.238Z" fill="#B33636"/>
<path d="M362.042 189.773L292.495 309.046H153.402L83.8557 189.773L95.8873 169.102L153.402 70.5H292.495L362.042 189.773Z" fill="#B33636"/>
<path d="M239.883 248.289H219.332C217.663 248.289 216.585 246.936 216.585 245.237V177.571C216.585 160.577 210.917 156.484 198.329 156.484C192.035 156.484 185.15 156.797 180.386 157.386V245.272C180.456 246.902 179.169 248.254 177.569 248.289C177.535 248.289 177.5 248.289 177.465 248.289H157.088C155.454 248.289 154.167 246.971 154.167 245.341C154.167 245.306 154.167 245.272 154.167 245.237V146.149C154.167 139.317 156.01 137.652 161.991 136.75C170.128 135.536 187.584 134.184 195.408 134.184C225.139 134.184 242.769 142.369 242.769 177.606V245.306C242.839 246.936 241.552 248.289 239.953 248.324C239.953 248.289 239.918 248.289 239.883 248.289Z" fill="white"/>
<path d="M288.635 151.454H268.71C267.041 151.454 265.65 150.102 265.65 148.402V134.286C265.65 132.622 267.041 131.234 268.71 131.234H288.635C290.304 131.234 291.695 132.587 291.695 134.286V148.402C291.695 150.102 290.339 151.454 288.635 151.454ZM288.009 248.288H269.301C267.632 248.288 266.241 246.935 266.241 245.236V164.356C266.241 162.691 267.632 161.304 269.301 161.304H288.009C289.678 161.304 291.069 162.657 291.069 164.356V245.27C291.069 246.935 289.713 248.288 288.009 248.288Z" fill="white"/>
<path d="M186.367 299.756C185.463 299.965 184.524 300.103 183.62 300.103C181.499 300.103 180.351 298.889 180.351 296.808V295.803C180.351 293.722 181.499 292.508 183.62 292.508C184.559 292.508 185.463 292.647 186.367 292.855C186.715 292.924 186.784 293.028 186.784 293.236V299.41C186.784 299.583 186.749 299.687 186.367 299.756ZM184.698 294.277C184.35 294.242 184.002 294.207 183.62 294.207C182.681 294.207 182.438 294.866 182.438 295.768V296.774C182.438 297.676 182.681 298.369 183.62 298.369C183.968 298.369 184.35 298.334 184.698 298.3V294.277Z" fill="white"/>
<path d="M202.85 296.947H198.677V296.982C198.677 297.71 198.99 298.369 200.033 298.369C200.868 298.369 202.015 298.3 202.537 298.265H202.571C202.711 298.265 202.815 298.334 202.815 298.473V299.444C202.815 299.652 202.78 299.722 202.537 299.791C201.667 299.999 200.763 300.103 199.859 300.103C198.294 300.103 196.59 299.271 196.59 296.808V295.907C196.59 293.826 197.808 292.508 199.894 292.508C202.015 292.508 203.093 293.964 203.093 295.907V296.67C203.128 296.808 203.024 296.947 202.85 296.947ZM201.076 295.595C201.076 294.623 200.624 294.173 199.894 294.173C199.164 294.173 198.677 294.658 198.677 295.595V295.664H201.041V295.595H201.076Z" fill="white"/>
<path d="M216.828 294.137H215.055V299.686C215.055 299.825 214.916 299.964 214.777 299.964H213.212C213.073 299.964 212.934 299.825 212.934 299.686V292.056C212.934 290.287 214.151 289.871 215.472 289.871C215.959 289.871 216.411 289.906 216.898 289.975C217.037 290.01 217.107 290.045 217.107 290.114V291.189C217.107 291.328 217.072 291.397 216.933 291.397H215.577C215.159 291.397 215.09 291.64 215.09 292.021V292.542H216.863C217.002 292.542 217.141 292.646 217.141 292.819V293.86C217.072 294.033 216.968 294.137 216.828 294.137Z" fill="white"/>
<path d="M232.685 296.947H228.547V296.982C228.547 297.71 228.86 298.369 229.903 298.369C230.738 298.369 231.885 298.3 232.407 298.265H232.442C232.581 298.265 232.685 298.334 232.685 298.473V299.444C232.685 299.652 232.65 299.722 232.407 299.791C231.538 299.999 230.633 300.103 229.729 300.103C228.165 300.103 226.461 299.271 226.461 296.808V295.907C226.461 293.826 227.678 292.508 229.764 292.508C231.885 292.508 232.963 293.964 232.963 295.907V296.67C232.963 296.808 232.859 296.947 232.685 296.947ZM230.912 295.595C230.912 294.623 230.46 294.173 229.729 294.173C228.999 294.173 228.512 294.658 228.512 295.595V295.664H230.877V295.595H230.912Z" fill="white"/>
<path d="M246.038 300.101H245.829C244.995 300.101 242.7 299.858 242.7 296.841V292.887C242.7 292.748 242.804 292.609 242.943 292.609H244.543C244.682 292.609 244.821 292.748 244.821 292.887V296.841C244.821 298.055 245.203 298.332 245.829 298.332H246.003C246.629 298.332 247.012 298.055 247.012 296.841V292.887C247.012 292.748 247.116 292.609 247.29 292.609H248.889C249.028 292.609 249.133 292.748 249.133 292.887V296.841C249.133 299.858 246.838 300.101 246.038 300.101Z" fill="white"/>
<path d="M262.277 300.106C261.929 300.106 261.547 300.072 261.199 300.002V302.222C261.199 302.361 261.095 302.465 260.921 302.465H259.356C259.217 302.465 259.078 302.361 259.078 302.222V293.17C259.078 292.962 259.113 292.892 259.495 292.788C260.399 292.58 261.338 292.441 262.277 292.441C264.398 292.441 265.546 293.655 265.546 295.736V296.742C265.546 298.823 264.468 300.106 262.277 300.106ZM263.425 295.771C263.425 294.869 263.181 294.21 262.277 294.21C261.929 294.21 261.547 294.21 261.199 294.28V298.303C261.547 298.337 261.895 298.372 262.277 298.372C263.216 298.372 263.425 297.678 263.425 296.777V295.771Z" fill="white"/>
<path d="M160.496 296.392H170.997L169.467 296.357H160.809L98.6689 189.778L109.414 171.292L160.809 83.1641H285.088L347.263 189.778L285.088 296.357H274.622" stroke="white" stroke-width="1.0612" stroke-miterlimit="10"/>
</g>
</g>
</g>
<defs>
<filter id="filter0_d_1097_100" x="0" y="0" width="446" height="387" filterUnits="userSpaceOnUse" color-interpolation-filters="sRGB">
<feFlood flood-opacity="0" result="BackgroundImageFix"/>
<feColorMatrix in="SourceAlpha" type="matrix" values="0 0 0 0 0 0 0 0 0 0 0 0 0 0 0 0 0 0 127 0" result="hardAlpha"/>
<feOffset dy="4"/>
<feGaussianBlur stdDeviation="2"/>
<feComposite in2="hardAlpha" operator="out"/>
<feColorMatrix type="matrix" values="0 0 0 0 0 0 0 0 0 0 0 0 0 0 0 0 0 0 0.25 0"/>
<feBlend mode="normal" in2="BackgroundImageFix" result="effect1_dropShadow_1097_100"/>
<feBlend mode="normal" in="SourceGraphic" in2="effect1_dropShadow_1097_100" result="shape"/>
</filter>
<filter id="filter1_d_1097_100" x="79.5413" y="47.7539" width="286.676" height="291.986" filterUnits="userSpaceOnUse" color-interpolation-filters="sRGB">
<feFlood flood-opacity="0" result="BackgroundImageFix"/>
<feColorMatrix in="SourceAlpha" type="matrix" values="0 0 0 0 0 0 0 0 0 0 0 0 0 0 0 0 0 0 127 0" result="hardAlpha"/>
<feOffset dy="4.2448"/>
<feGaussianBlur stdDeviation="2.1224"/>
<feComposite in2="hardAlpha" operator="out"/>
<feColorMatrix type="matrix" values="0 0 0 0 0 0 0 0 0 0 0 0 0 0 0 0 0 0 0.25 0"/>
<feBlend mode="normal" in2="BackgroundImageFix" result="effect1_dropShadow_1097_100"/>
<feBlend mode="normal" in="SourceGraphic" in2="effect1_dropShadow_1097_100" result="shape"/>
</filter>
<clipPath id="clip0_1097_100">
<rect width="278.186" height="283.495" fill="white" transform="translate(83.7861 47.7539)"/>
</clipPath>
</defs>
</svg>
